<?xml version="1.0" standalone="no"?>
<!DOCTYPE svg PUBLIC "-//W3C//DTD SVG 20010904//EN"
 "http://www.w3.org/TR/2001/REC-SVG-20010904/DTD/svg10.dtd">
<svg version="1.0" xmlns="http://www.w3.org/2000/svg"
 width="700.000000pt" height="700.000000pt" viewBox="0 0 700.000000 700.000000"
 preserveAspectRatio="xMidYMid meet">
<metadata>
Created by potrace 1.11, written by Peter Selinger 2001-2013
</metadata>
<g transform="translate(0.000000,700.000000) scale(0.100000,-0.100000)"
fill="#000000" stroke="none">
<path d="M1725 5936 c-45 -20 -83 -70 -90 -119 -3 -23 -5 -329 -3 -679 3 -625
3 -637 24 -664 11 -15 33 -37 48 -48 l27 -21 1812 -3 1812 -2 45 22 c84 43 80
3 80 759 l0 666 -23 34 c-45 68 -50 69 -455 69 -347 0 -365 -1 -403 -21 -72
-36 -79 -65 -79 -336 l0 -233 -185 0 -184 0 -3 248 c-3 237 -4 248 -25 278
-46 65 -41 64 -565 64 -527 0 -519 1 -565 -69 -22 -33 -23 -41 -23 -277 l0
-244 -184 0 -184 0 -4 244 c-3 269 -3 269 -72 320 -26 20 -41 21 -399 23 -294
2 -378 0 -402 -11z"/>
<path d="M2106 4159 c-25 -19 -26 -25 -26 -108 l0 -88 68 -7 c206 -21 384 -99
530 -232 l69 -63 44 45 c119 122 288 207 474 240 111 19 474 19 588 -1 183
-32 329 -104 465 -230 l59 -54 44 45 c133 137 338 231 545 250 l76 7 -4 89
c-5 144 185 128 -1478 128 l-1427 0 -27 -21z"/>
<path d="M1965 3733 c-11 -3 -32 -14 -48 -25 -60 -43 -57 30 -57 -1226 l0
-1149 23 -34 c46 -69 46 -69 487 -69 391 0 396 0 440 22 85 43 80 -11 80 873
0 644 3 792 15 849 37 174 158 328 316 404 116 56 174 65 375 60 142 -4 179
-9 231 -27 135 -49 263 -159 327 -281 73 -138 69 -95 76 -995 5 -752 6 -813
23 -838 41 -63 32 -62 474 -65 382 -3 405 -2 447 17 33 14 50 30 65 60 21 40
21 48 21 1178 l0 1138 -21 35 c-43 70 -83 82 -215 69 -231 -24 -450 -139 -589
-310 -32 -38 -61 -69 -65 -69 -4 0 -20 18 -35 40 -34 49 -136 146 -199 190
-65 44 -200 107 -271 125 -157 41 -441 43 -590 5 -203 -52 -363 -156 -495
-322 l-38 -47 -27 39 c-39 56 -163 171 -232 216 -75 48 -205 102 -291 119 -79
16 -199 25 -227 18z m3004 -490 l0 -188 -222 -171 -222 -171 -3 96 c-8 277
134 496 392 603 23 9 44 17 49 17 4 1 7 -83 6 -186z m-2737 153 c160 -66 292
-216 342 -387 21 -75 34 -293 17 -288 -7 3 -109 79 -227 169 l-214 165 0 183
c0 139 3 182 13 182 6 0 38 -11 69 -24z m156 -896 l212 -164 0 -179 c0 -102
-4 -177 -9 -175 -5 2 -106 77 -224 168 l-216 165 0 184 c-1 145 2 181 12 174
6 -5 108 -83 225 -173z m2582 1 l0 -180 -220 -170 c-121 -94 -222 -171 -225
-171 -3 0 -5 81 -5 179 l0 180 218 170 c119 93 220 170 225 170 4 1 7 -80 7
-178z m-2590 -732 l221 -171 -3 -37 -3 -36 -220 0 -220 0 -3 208 c-1 114 0
207 2 207 3 0 105 -77 226 -171z m2588 -36 l-3 -208 -222 -3 -223 -2 1 42 0
43 217 167 c119 92 220 168 225 168 4 0 6 -93 5 -207z"/>
</g>
</svg>
